<?xml version="1.0" standalone="no"?>
<!DOCTYPE svg PUBLIC "-//W3C//DTD SVG 20010904//EN"
 "http://www.w3.org/TR/2001/REC-SVG-20010904/DTD/svg10.dtd">
<svg version="1.0" xmlns="http://www.w3.org/2000/svg"
 width="250.000000pt" height="246.000000pt" viewBox="0 0 250.000000 246.000000"
 preserveAspectRatio="xMidYMid meet">

<g transform="translate(0.000000,246.000000) scale(0.100000,-0.100000)"
fill="#000000" stroke="none">
<path d="M1 1918 l1 -543 18 90 c10 50 24 104 31 120 14 34 13 30 23 73 4 17
12 32 17 32 6 0 8 4 5 8 -13 21 115 240 181 309 18 20 33 39 33 44 0 13 143
138 217 190 40 28 109 68 153 90 84 42 220 92 228 84 3 -3 11 0 18 5 6 6 16
10 20 9 5 -1 16 1 24 4 8 4 40 11 70 16 36 6 -133 9 -492 10 l-548 1 1 -542z"/>
<path d="M1430 2449 c30 -5 62 -12 70 -16 8 -3 19 -5 24 -4 4 1 14 -3 20 -9 7
-5 15 -8 18 -5 8 8 144 -42 228 -84 44 -22 113 -62 153 -90 84 -59 217 -177
217 -194 0 -7 9 -18 19 -24 45 -28 211 -309 194 -327 -4 -3 -1 -6 5 -6 6 0 14
-15 18 -32 10 -43 9 -39 23 -73 65 -154 65 -556 0 -710 -14 -34 -13 -30 -23
-73 -4 -17 -12 -32 -17 -32 -6 0 -8 -4 -5 -8 13 -21 -115 -240 -181 -309 -18
-20 -33 -39 -33 -44 0 -13 -143 -138 -217 -190 -40 -28 -109 -68 -153 -90 -84
-42 -220 -92 -228 -84 -3 3 -11 0 -18 -5 -6 -6 -16 -10 -20 -9 -5 1 -16 -1
-24 -4 -8 -4 -40 -11 -70 -16 -36 -6 139 -9 508 -10 l562 -1 0 1230 0 1230
-562 -1 c-369 -1 -544 -4 -508 -10z"/>
<path d="M1924 1557 c-64 -31 -117 -93 -139 -163 -25 -79 -18 -222 14 -284 50
-98 116 -141 228 -148 129 -8 212 37 265 146 29 59 32 74 33 156 0 141 -41
229 -132 283 -39 22 -61 28 -132 31 -75 3 -93 0 -137 -21z m211 -86 c32 -18
78 -78 70 -92 -3 -4 -1 -10 3 -13 17 -10 19 -161 3 -191 -3 -5 -6 -17 -8 -25
-1 -8 -7 -16 -13 -18 -5 -2 -8 -7 -5 -11 2 -5 -7 -19 -20 -31 -14 -13 -25 -20
-25 -16 0 4 -6 1 -14 -7 -18 -18 -119 -21 -147 -5 -33 20 -78 64 -81 79 -2 8
-7 17 -12 20 -13 10 -17 158 -5 201 5 20 15 43 22 50 7 7 16 21 20 31 3 9 13
17 22 17 8 0 15 5 15 11 0 5 5 7 10 4 6 -3 10 -1 10 5 0 7 6 10 13 7 6 -2 21
-1 32 3 26 10 72 2 110 -19z"/>
<path d="M227 1278 c-59 -161 -107 -296 -107 -300 0 -5 22 -8 49 -8 l49 0 27
80 27 81 121 -3 121 -3 25 -77 25 -78 54 0 c29 0 52 4 50 9 -2 6 -50 141 -108
300 l-105 291 -61 0 -60 0 -107 -292z m168 163 c-3 -5 -1 -12 5 -16 6 -4 8
-11 5 -16 -4 -5 -2 -9 4 -9 5 0 13 -15 17 -32 4 -18 9 -36 10 -40 1 -5 3 -10
4 -13 1 -3 4 -9 5 -15 1 -5 4 -13 5 -17 1 -5 2 -11 1 -15 0 -5 3 -8 8 -8 5 0
11 -9 14 -20 5 -19 0 -20 -79 -20 -51 0 -84 4 -84 10 0 6 7 27 17 48 9 20 17
40 18 45 2 4 4 9 5 12 1 3 3 8 4 13 1 4 6 22 10 40 4 17 12 32 17 32 5 0 8 3
8 8 -2 12 1 22 7 22 3 0 3 -4 -1 -9z"/>
<path d="M722 1343 c4 -248 9 -272 65 -325 42 -40 94 -58 168 -58 74 0 126 18
168 58 56 53 61 77 65 325 l4 227 -51 0 -51 0 0 -202 c0 -231 -7 -270 -53
-298 -36 -23 -112 -27 -151 -8 -57 25 -61 43 -64 286 l-3 222 -51 0 -50 0 4
-227z"/>
<path d="M1240 1525 l0 -45 105 0 105 0 0 -255 0 -255 50 0 50 0 0 255 0 255
105 0 105 0 0 45 0 45 -260 0 -260 0 0 -45z"/>
<path d="M1 543 l-1 -543 548 1 c359 1 528 4 492 10 -30 5 -62 12 -70 16 -8 3
-19 5 -24 4 -4 -1 -14 3 -20 9 -7 5 -15 8 -18 5 -8 -8 -144 42 -228 84 -44 22
-113 62 -153 90 -84 59 -217 177 -217 194 0 7 -9 18 -19 24 -45 28 -211 309
-194 327 4 3 1 6 -5 6 -6 0 -14 15 -18 33 -10 42 -9 38 -23 72 -7 17 -21 71
-31 120 l-18 90 -1 -542z"/>
</g>
</svg>
